<svg xmlns="http://www.w3.org/2000/svg" xmlns:xlink="http://www.w3.org/1999/xlink" viewBox="0 0 78 97.5" version="1.1" x="0px" y="0px"><title>bars</title><desc>Created with Sketch.</desc><g stroke="none" stroke-width="1" fill="none" fill-rule="evenodd"><g transform="translate(-131.000000, -348.000000)" fill="#000000"><path d="M131,387 C131,365.460895 148.456159,348 170,348 C191.539105,348 209,365.456159 209,387 C209,408.539105 191.543841,426 170,426 C148.460895,426 131,408.543841 131,387 Z M191,373.002087 C191,374.105504 190.105527,375 188.99473,375 L152.00527,375 C150.89779,375 150,374.101739 150,373.002087 L150,370.997913 C150,369.894496 150.894473,369 152.00527,369 L188.99473,369 C190.10221,369 191,369.898261 191,370.997913 L191,373.002087 Z M150,388.002087 C150,389.105504 150.894473,390 152.00527,390 L188.99473,390 C190.10221,390 191,389.101739 191,388.002087 L191,385.997913 C191,384.894496 190.105527,384 188.99473,384 L152.00527,384 C150.89779,384 150,384.898261 150,385.997913 L150,388.002087 Z M150,403.002087 C150,404.105504 150.894473,405 152.00527,405 L188.99473,405 C190.10221,405 191,404.101739 191,403.002087 L191,400.997913 C191,399.894496 190.105527,399 188.99473,399 L152.00527,399 C150.89779,399 150,399.898261 150,400.997913 L150,403.002087 Z"/></g></g><text x="0" y="93" fill="#000000" font-size="5px" font-weight="bold" font-family="'Helvetica Neue', Helvetica, Arial-Unicode, Arial, Sans-serif">Created by Kevin</text><text x="0" y="98" fill="#000000" font-size="5px" font-weight="bold" font-family="'Helvetica Neue', Helvetica, Arial-Unicode, Arial, Sans-serif">from the Noun Project</text></svg>